<?xml version="1.0" standalone="no"?>
<!DOCTYPE svg PUBLIC "-//W3C//DTD SVG 20010904//EN"
 "http://www.w3.org/TR/2001/REC-SVG-20010904/DTD/svg10.dtd">
<svg version="1.0" xmlns="http://www.w3.org/2000/svg"
 width="500.000000pt" height="500.000000pt" viewBox="0 0 500.000000 500.000000"
 preserveAspectRatio="xMidYMid meet">

<g transform="translate(0.000000,500.000000) scale(0.100000,-0.100000)"
fill="#000000" stroke="none">
<path d="M0 2500 l0 -2500 2500 0 2500 0 0 2500 0 2500 -2500 0 -2500 0 0
-2500z m2421 885 c17 -28 27 -35 53 -35 27 0 35 6 50 36 l17 37 132 -6 c183
-8 298 -48 377 -132 l23 -25 -270 0 -271 0 -12 30 c-10 25 -18 30 -46 30 -27
0 -36 -6 -49 -30 -14 -28 -20 -30 -68 -30 -50 0 -53 2 -73 38 l-22 37 25 43
c23 39 28 42 69 42 40 0 47 -3 65 -35z m-215 -210 c14 -27 25 -35 45 -35 20 0
33 9 49 35 l22 35 399 0 399 0 23 -37 c13 -21 31 -57 40 -80 l17 -43 -439 0
-439 0 -22 35 c-16 26 -29 35 -49 35 -20 0 -31 -8 -45 -35 -18 -32 -23 -35
-67 -35 -43 0 -49 3 -68 34 -12 18 -21 39 -21 46 0 7 9 28 21 46 19 31 25 34
68 34 44 0 49 -3 67 -35z m-258 -212 l23 -42 -26 -41 c-25 -40 -28 -41 -73
-38 -43 3 -48 6 -69 43 l-22 41 25 42 c25 42 27 43 72 40 43 -3 48 -6 70 -45z
m491 12 c16 -28 27 -35 50 -35 24 0 34 7 46 30 l16 30 329 0 330 0 0 -80 0
-80 -325 0 -326 0 -20 35 c-29 49 -71 49 -101 0 l-20 -36 -115 3 -115 3 -24
40 -23 40 25 43 25 42 114 0 113 0 21 -35z m-258 -210 c16 -26 28 -35 48 -35
20 0 31 8 45 35 l19 35 453 0 453 0 -14 -41 c-8 -22 -25 -58 -37 -80 l-22 -39
-418 0 -417 0 -16 30 c-13 24 -22 30 -49 30 -28 0 -36 -5 -46 -30 -12 -28 -16
-30 -66 -30 -53 0 -54 1 -74 40 l-21 41 22 39 c22 38 25 40 71 40 45 0 50 -3
69 -35z m-81 -200 c16 -27 28 -35 50 -35 21 0 33 8 49 35 l20 35 258 0 c142 0
336 -3 432 -7 l175 -6 -40 -35 c-21 -18 -65 -47 -96 -63 -103 -52 -155 -59
-459 -59 l-275 0 -17 35 c-13 28 -22 35 -46 35 -23 0 -34 -8 -50 -35 l-20 -35
-123 0 -123 0 -24 43 -24 43 27 42 26 42 119 0 119 0 22 -35z m-322 -347 c7
-7 12 -27 12 -45 0 -30 -3 -33 -30 -33 -25 0 -30 4 -30 25 0 16 -6 25 -15 25
-12 0 -15 -15 -15 -75 0 -60 3 -75 15 -75 8 0 15 9 15 20 0 16 7 20 30 20 26
0 30 -4 30 -28 0 -40 -17 -52 -75 -52 -28 0 -56 5 -63 12 -8 8 -12 46 -12 103
0 57 4 95 12 103 7 7 35 12 63 12 28 0 56 -5 63 -12z m230 0 c8 -8 12 -46 12
-103 0 -57 -4 -95 -12 -103 -7 -7 -35 -12 -63 -12 -28 0 -56 5 -63 12 -8 8
-12 46 -12 103 0 57 4 95 12 103 7 7 35 12 63 12 28 0 56 -5 63 -12z m154 -80
l3 -93 38 -3 c29 -3 37 -7 37 -23 0 -17 -7 -19 -70 -19 l-70 0 0 115 0 115 30
0 29 0 3 -92z m200 0 l3 -93 33 -3 c24 -2 32 -8 32 -23 0 -17 -7 -19 -65 -19
l-65 0 0 115 0 115 30 0 29 0 3 -92z m278 73 c0 -13 -8 -21 -22 -23 -22 -3
-23 -8 -26 -95 l-3 -93 -29 0 -30 0 0 95 c0 88 -1 95 -20 95 -13 0 -20 7 -20
20 0 18 7 20 75 20 67 0 75 -2 75 -19z m200 -1 c0 -16 -7 -20 -35 -20 -31 0
-35 -3 -35 -25 0 -21 5 -25 30 -25 25 0 30 -4 30 -25 0 -21 -5 -25 -30 -25
-25 0 -30 -4 -30 -25 0 -22 4 -25 40 -25 33 0 40 -3 40 -20 0 -18 -7 -20 -75
-20 l-75 0 0 115 0 115 70 0 c63 0 70 -2 70 -20z m214 4 c9 -8 16 -29 16 -45
0 -25 -4 -29 -29 -29 -23 0 -30 5 -33 22 -2 12 -9 23 -15 26 -10 3 -13 -16
-13 -72 0 -48 4 -76 11 -76 6 0 13 9 16 20 4 14 14 20 34 20 24 0 29 -4 29
-24 0 -38 -25 -56 -80 -56 -70 0 -80 14 -80 115 0 63 4 88 16 99 21 21 107 21
128 0z m146 -29 c0 -41 2 -45 25 -45 23 0 25 4 25 45 0 43 1 45 30 45 l30 0 0
-115 0 -115 -30 0 c-29 0 -30 2 -30 45 0 41 -2 45 -25 45 -23 0 -25 -4 -25
-45 0 -43 -1 -45 -30 -45 l-30 0 0 115 0 115 30 0 c29 0 30 -2 30 -45z m-1630
-379 c0 -8 -7 -16 -15 -20 -11 -4 -15 -21 -15 -66 0 -47 -3 -60 -15 -60 -12 0
-15 14 -15 65 0 37 -4 65 -10 65 -5 0 -10 7 -10 15 0 11 11 15 40 15 28 0 40
-4 40 -14z m160 -1 c0 -8 -9 -15 -20 -15 -13 0 -20 -7 -20 -20 0 -13 7 -20 20
-20 11 0 20 -4 20 -9 0 -5 -9 -11 -20 -14 -11 -3 -20 -12 -20 -21 0 -9 8 -16
20 -16 11 0 20 -7 20 -15 0 -10 -11 -15 -35 -15 l-35 0 0 80 0 80 35 0 c24 0
35 -5 35 -15z m178 3 c7 -7 12 -18 12 -25 0 -18 -27 -16 -34 2 -13 34 -26 12
-26 -45 0 -57 13 -79 26 -45 10 24 36 18 32 -7 -3 -20 -9 -23 -43 -23 l-40 0
-3 64 c-2 35 -1 70 2 77 7 17 58 18 74 2z m140 -26 c4 -42 20 -41 24 1 2 20 8
32 18 32 12 0 16 -17 18 -77 3 -73 1 -78 -18 -78 -16 0 -20 6 -20 30 0 17 -4
30 -10 30 -5 0 -10 -13 -10 -30 0 -23 -4 -30 -20 -30 -18 0 -20 7 -20 81 0 71
2 80 18 77 11 -2 18 -14 20 -36z m240 -44 c2 -65 0 -78 -13 -78 -12 0 -15 14
-15 70 0 40 -4 70 -10 70 -6 0 -10 -30 -10 -70 0 -63 -2 -70 -20 -70 -18 0
-20 7 -20 61 0 79 12 101 53 97 l32 -3 3 -77z m190 -1 l3 -78 -43 3 -43 3 -3
63 c-4 75 8 94 52 90 l31 -3 3 -78z m140 15 c2 -46 7 -62 17 -62 8 0 15 -7 15
-15 0 -10 -11 -15 -35 -15 l-35 0 0 81 c0 71 2 80 18 77 14 -3 18 -16 20 -66z
m210 56 c12 -12 17 -104 6 -132 -4 -11 -19 -16 -44 -16 -31 0 -39 4 -44 23 -9
35 -7 96 4 118 12 22 59 26 78 7z m192 -7 c13 -26 -8 -41 -25 -18 -20 28 -25
20 -25 -43 0 -37 4 -60 11 -60 7 0 9 12 5 35 -6 30 -4 35 13 35 27 0 34 -15
27 -56 -6 -32 -9 -34 -45 -34 -32 0 -40 4 -45 23 -9 35 -7 96 4 118 14 26 66
26 80 0z m130 -61 c0 -64 -3 -80 -15 -80 -12 0 -15 16 -15 80 0 64 3 80 15 80
12 0 15 -16 15 -80z m170 65 c0 -8 -7 -15 -15 -15 -8 0 -15 -9 -15 -20 0 -11
7 -20 15 -20 8 0 15 -4 15 -10 0 -5 -7 -10 -15 -10 -8 0 -15 -9 -15 -20 0 -11
7 -20 15 -20 8 0 15 -7 15 -15 0 -10 -11 -15 -35 -15 l-35 0 0 80 0 80 35 0
c24 0 35 -5 35 -15z m178 -9 c3 -16 0 -18 -22 -12 -19 5 -26 2 -26 -8 0 -7 11
-17 24 -20 28 -7 41 -36 32 -72 -6 -22 -11 -25 -44 -22 -30 2 -38 7 -40 26 -2
15 2 22 12 22 9 0 16 -7 16 -15 0 -8 5 -15 10 -15 22 0 9 38 -15 44 -21 5 -25
12 -25 45 0 46 6 53 45 49 20 -2 31 -9 33 -22z"/>
<path d="M1935 2178 c-9 -24 -1 -128 10 -131 13 -3 19 123 6 136 -7 7 -12 5
-16 -5z"/>
<path d="M2430 1740 c0 -33 4 -60 10 -60 6 0 10 27 10 60 0 33 -4 60 -10 60
-6 0 -10 -27 -10 -60z"/>
<path d="M2780 1740 c0 -33 4 -60 10 -60 6 0 10 27 10 60 0 33 -4 60 -10 60
-6 0 -10 -27 -10 -60z"/>
</g>
</svg>
